<svg width="51" height="51" viewBox="0 0 51 51" fill="none" xmlns="http://www.w3.org/2000/svg">
<path d="M46.75 25.5C46.75 13.77 37.23 4.25 25.5 4.25C13.77 4.25 4.25 13.77 4.25 25.5C4.25 37.23 13.77 46.75 25.5 46.75M17 6.375H19.125C14.9813 18.785 14.9813 32.215 19.125 44.625H17M31.875 6.375C33.9363 12.58 34.9775 19.04 34.9775 25.5M6.375 34V31.875C12.58 33.9363 19.04 34.9775 25.5 34.9775M6.375 19.1249C18.785 14.9812 32.215 14.9812 44.625 19.1249M46.75 46.75L44.625 44.625M45.475 38.675C45.475 42.4306 42.4305 45.4751 38.675 45.4751C34.9195 45.4751 31.875 42.4306 31.875 38.675C31.875 34.9195 34.9195 31.875 38.675 31.875C42.4305 31.875 45.475 34.9195 45.475 38.675Z" stroke="black" stroke-width="1.5" stroke-linecap="round" stroke-linejoin="round"/>
</svg>
